HIERARCHY
ROOT Hips
{
  OFFSET 76.1166 86.0381 -109.44
  CHANNELS 6 Xposition Yposition Zposition Zrotation Xrotation Yrotation
  JOINT RightUpLeg
  {
    OFFSET -8.9458 -8.66707 0.101652
    CHANNELS 3 Zrotation Xrotation Yrotation
    JOINT RightLeg
    {
      OFFSET 0 -44.4227 1.3727
      CHANNELS 3 Zrotation Xrotation Yrotation
      JOINT RightFoot
      {
        OFFSET 0.253549 -42.0924 -1.46059
        CHANNELS 3 Zrotation Xrotation Yrotation
        JOINT RightToes
        {
          OFFSET 0.04 -4.41509 8.4991
          CHANNELS 3 Zrotation Xrotation Yrotation
          End Site
          {
            OFFSET -0.08 -0.137448 9.77979
          }
        }
      }
    }
  }
  JOINT Spine
  {
    OFFSET 0 11.8905 0
    CHANNELS 3 Zrotation Xrotation Yrotation
    JOINT Spine1
    {
      OFFSET 0 25.6574 0.127663
      CHANNELS 3 Zrotation Xrotation Yrotation
      JOINT LeftShoulder1
      {
        OFFSET 8.99 -0.362252 -0.22
        CHANNELS 3 Zrotation Xrotation Yrotation
        JOINT LeftArm
        {
          OFFSET 10.2827 -0.00338 0.322123
          CHANNELS 3 Zrotation Xrotation Yrotation
          JOINT LeftForeArm
          {
            OFFSET 32.7669 0.099144 -1.42434
            CHANNELS 3 Zrotation Xrotation Yrotation
            JOINT LeftHand
            {
              OFFSET 27.5643 0.085362 1.02216
              CHANNELS 3 Zrotation Xrotation Yrotation
              End Site
              {
                OFFSET 16.7443 -0.6 1.50291
              }
            }
          }
        }
      }
      JOINT RightShoulder
      {
        OFFSET -8.99 -0.362252 -0.22
        CHANNELS 3 Zrotation Xrotation Yrotation
        JOINT RightArm
        {
          OFFSET -10.2827 -0.00338 0.322123
          CHANNELS 3 Zrotation Xrotation Yrotation
          JOINT RightForeArm
          {
            OFFSET -32.8971 0.099144 -1.42434
            CHANNELS 3 Zrotation Xrotation Yrotation
            JOINT RightHand
            {
              OFFSET -27.4921 0.085362 1.02216
              CHANNELS 3 Zrotation Xrotation Yrotation
              End Site
              {
                OFFSET -16.6312 -0.6 1.50291
              }
            }
          }
        }
      }
      JOINT HEad
      {
        OFFSET 0 8.73416 0.011341
        CHANNELS 3 Zrotation Xrotation Yrotation
        End Site
        {
          OFFSET -0.29 12.7742 2.51395
        }
      }
    }
  }
  JOINT LeftUpLeg
  {
    OFFSET 8.9458 -8.66707 0.101652
    CHANNELS 3 Zrotation Xrotation Yrotation
    JOINT LeftLeg
    {
      OFFSET 0 -44.4227 1.3727
      CHANNELS 3 Zrotation Xrotation Yrotation
      JOINT LeftFoot
      {
        OFFSET -0.253549 -42.0924 -1.46059
        CHANNELS 3 Zrotation Xrotation Yrotation
        JOINT LeftToes
        {
          OFFSET -0.04 -4.41509 8.4991
          CHANNELS 3 Zrotation Xrotation Yrotation
          End Site
          {
            OFFSET 0.08 -0.047448 9.77979
          }
        }
      }
    }
  }
}
MOTION
Frames:	22
Frame Time:	0.0166667
12.2842 90.1452 -58.2357 3.84392 1.18778 76.3434 -24.2045 -9.27938 9.21871 11.2007 39.3997 -17.2799 1.28894 11.1426 -0.259683 -33.4582 -59.0798 -21.9866 3.52401 6.31477 -0.815571 -0.165848 12.7154 -0.916288 6.62086e-032 2.38542e-015 -1.59028e-015 -70.0309 5.47983 -22.973 -13.5355 39.7047 -114.546 6.54677 9.62745 -1.04006 25.5075 -3.46762 -14.9742 51.4683 -17.5425 21.5991 -7.49731 36.2881 128.334 -23.1513 7.43205 8.22479 12.4426 -14.0619 2.334 27.9369 -8.13322 -12.5873 -13.0078 22.643 11.6992 -8.59578 18.1159 1.80325 19.6498 -30.9417 14.6165 
13.7411 90.2746 -61.251 3.84667 1.16763 75.5852 -25.3212 -8.96151 11.0768 10.1669 38.1945 -17.0613 1.83332 11.1482 -0.348702 -28.1659 -52.6578 -18.7649 3.76605 6.2306 -0.78764 0.299391 12.4785 -0.846834 -1.59028e-015 3.57812e-015 4.77083e-015 -68.3607 6.68728 -21.2669 -13.0311 39.0273 -115.192 6.54677 9.62745 -1.04006 25.813 -3.75902 -15.8826 49.6012 -20.1338 19.3084 -7.70326 36.4647 129.292 -22.0029 7.87202 6.57665 11.9587 -14.1236 1.802 26.2612 -7.14442 -11.3973 -12.6511 23.1136 10.6044 -8.66491 19.6273 1.92416 25.1039 -37.2632 17.7481 
15.1943 90.598 -64.2181 3.75604 1.19207 74.6302 -26.3315 -9.03003 12.6476 9.2399 37.0391 -17.3569 2.3089 11.1792 -0.426873 -22.4184 -44.9267 -15.0984 4.00972 6.1291 -0.762926 0.797429 12.2029 -0.787146 3.31043e-032 -1.19271e-015 1.59028e-015 -66.9096 7.47186 -19.2431 -12.5443 38.4902 -116.047 6.54677 9.62745 -1.04006 26.0047 -3.99983 -16.6479 47.685 -22.8104 17.2493 -8.02147 36.5045 130.535 -20.6016 8.33249 4.72449 11.3032 -14.199 1.43449 24.5159 -6.08986 -10.3857 -12.5684 23.3616 10.1651 -8.37086 20.2688 1.89727 29.7417 -41.9105 20.5514 
16.6079 91.1309 -67.094 3.57442 1.22387 73.5161 -27.1901 -9.54895 13.7663 8.6793 36.0528 -18.2052 2.63891 11.0845 -0.479372 -16.7807 -36.1226 -11.4372 4.29586 6.01927 -0.738564 1.33459 11.9177 -0.730109 -1.98626e-031 2.38542e-015 4.77083e-015 -65.7636 7.76256 -16.9507 -12.1027 38.1289 -117.033 6.54677 9.62745 -1.04006 26.0623 -4.17602 -17.2434 45.8746 -25.3816 15.4481 -8.3684 36.3786 131.867 -19.0856 8.75064 2.88036 10.5431 -14.2777 1.21519 22.7918 -5.04498 -9.61882 -12.7407 23.3106 10.3035 -7.89806 20.1626 1.77533 32.9854 -44.8607 22.5176 
17.9519 91.8673 -69.8458 3.31466 1.21688 72.3 -27.8378 -10.5336 14.3319 8.71667 35.3692 -19.5202 2.81037 10.7037 -0.500525 -11.8655 -27.1182 -8.25068 4.67317 5.91724 -0.715724 1.91706 11.661 -0.675561 1.32417e-031 1.19271e-015 -6.36111e-015 -64.9417 7.50379 -14.5125 -11.734 37.9629 -118.059 6.54677 9.62745 -1.04006 25.9781 -4.27472 -17.6372 44.3204 -27.6625 13.8991 -8.7019 36.0566 133.13 -17.6371 9.0852 1.23512 9.74801 -14.3501 1.11793 21.1764 -4.09109 -9.11337 -13.0994 22.983 10.8181 -7.54871 19.5361 1.65293 34.6384 -46.4016 23.3826 
19.202 92.7754 -72.4476 2.99644 1.13334 71.0506 -28.2221 -11.9386 14.3135 9.49174 35.1005 -21.0947 2.91603 9.91822 -0.502678 -8.07517 -19.1768 -5.80562 5.16957 5.84332 -0.698727 2.54032 11.4715 -0.632505 -3.18055e-015 1.59028e-015 3.18055e-015 -64.4089 6.66935 -12.1069 -11.4582 37.993 -119.045 6.54677 9.62745 -1.04006 25.7613 -4.28923 -17.8049 43.1414 -29.5244 12.5792 -9.0095 35.5468 134.227 -16.4464 9.32107 -0.0663912 8.98155 -14.4109 1.11097 19.7538 -3.31524 -8.8342 -13.5599 22.4947 11.4386 -7.63889 18.6781 1.62221 34.9305 -46.958 23.2114 
20.3402 93.8019 -74.8777 2.6443 0.960188 69.8378 -28.3205 -13.6569 13.7439 11.0135 35.2917 -22.6508 3.13671 8.70155 -0.511303 -5.48938 -13.2543 -4.10977 5.76888 5.81544 -0.692899 3.18131 11.379 -0.615769 2.64834e-031 2.38542e-015 -6.36111e-015 -64.1091 5.27434 -9.93741 -11.2829 38.2034 -119.94 6.54677 9.62745 -1.04006 25.4364 -4.2245 -17.7482 42.4126 -30.9201 11.4661 -9.28674 34.9153 135.113 -15.6659 9.46323 -0.93944 8.29499 -14.4586 1.16139 18.5912 -2.80489 -8.70239 -14.0523 22.0224 11.8679 -8.39466 17.8991 1.74343 34.3578 -46.9796 22.2993 
21.3567 94.8816 -77.121 2.28862 0.716815 68.7235 -28.1498 -15.5366 12.707 13.1464 35.8949 -23.9052 3.67133 7.13033 -0.547724 -3.94203 -9.58296 -3.01097 6.40627 5.84312 -0.702633 3.79845 11.3981 -0.639837 6.36111e-015 -7.95139e-016 -0 -64.0039 3.37101 -8.20134 -11.204 38.5757 -120.727 6.54677 9.62745 -1.04006 25.0368 -4.0983 -17.5057 42.1661 -31.8711 10.5538 -9.52381 34.2665 135.776 -15.3726 9.52523 -1.35986 7.7226 -14.4941 1.24033 17.7183 -2.63441 -8.61904 -14.5323 21.7586 11.8037 -9.88596 17.4699 2.04185 33.4122 -46.837 20.9754 
22.2527 95.9485 -79.1733 1.96745 0.451039 67.7525 -27.7557 -17.4145 11.3258 15.6215 36.7836 -24.6086 4.66093 5.35303 -0.615072 -3.15396 -7.79655 -2.31194 6.98412 5.9253 -0.729683 4.33985 11.5278 -0.712867 6.36111e-015 7.95139e-016 -0 -64.0974 1.02676 -7.06487 -11.2144 39.1102 -121.427 6.54677 9.62745 -1.04006 24.5947 -3.93676 -17.1472 42.398 -32.4297 9.85474 -9.70501 33.6977 136.219 -15.5558 9.52002 -1.35625 7.27829 -14.5175 1.32745 17.1117 -2.84515 -8.49883 -14.9711 21.8655 10.9638 -12.0198 17.5413 2.51836 32.3337 -46.6994 19.412 
23.0416 96.9462 -81.0447 1.72615 0.224762 66.9447 -27.193 -19.1549 9.75656 18.0789 37.792 -24.5514 6.14954 3.54819 -0.699663 -2.83291 -7.25206 -1.84616 7.40056 6.05316 -0.772165 4.75486 11.7559 -0.832973 -3.18055e-015 -2.38542e-015 -3.18055e-015 -64.4412 -1.70476 -6.65062 -11.3179 39.8473 -122.081 6.54677 9.62745 -1.04006 24.1335 -3.76676 -16.7546 43.0739 -32.6454 9.38999 -9.81423 33.2624 136.449 -16.1282 9.45756 -0.999591 6.95551 -14.5249 1.41338 16.6998 -3.42273 -8.30548 -15.3435 22.4345 9.15923 -14.5812 18.0825 3.15147 30.9834 -46.445 17.5044 
23.7467 97.8322 -82.7595 1.61161 0.0943664 66.2902 -26.5113 -20.6731 8.1798 20.142 38.7485 -23.5626 8.08924 1.89685 -0.784639 -2.74036 -7.30403 -1.52321 7.57873 6.21504 -0.824747 5.00363 12.0642 -0.986893 -0 -3.18055e-015 -0 -65.1229 -4.80053 -7.03761 -11.5415 40.8788 -122.721 6.54677 9.62745 -1.04006 23.6662 -3.60909 -16.3988 44.1302 -32.5559 9.17343 -9.83979 32.9634 136.477 -16.9566 9.34737 -0.388533 6.73265 -14.5045 1.49798 16.3949 -4.28185 -8.07524 -15.6321 23.458 6.42746 -17.2779 18.8894 3.88234 28.9506 -45.7023 14.9266 
24.3958 98.5765 -84.3512 1.6632 0.0929475 65.7517 -25.7511 -21.9349 6.77862 21.5008 39.4927 -21.5249 10.373 0.563155 -0.864561 -2.72945 -7.47615 -1.33871 7.48678 6.39975 -0.880441 5.06125 12.4313 -1.15201 0 0 -0 -66.2512 -8.2599 -8.27317 -11.9462 42.3383 -123.329 6.54677 9.62745 -1.04006 23.1993 -3.47459 -16.1205 45.4739 -32.1976 9.19789 -9.77738 32.7741 136.326 -17.8989 9.20192 0.36768 6.58425 -14.4302 1.58546 16.1368 -5.27112 -7.91354 -15.8495 24.8239 3.15917 -19.7549 19.6954 4.6024 26.0279 -44.1183 11.5417 
25.0142 99.1475 -85.8473 1.90566 0.224557 65.2749 -24.9476 -22.9477 5.69954 21.9884 39.9162 -18.4237 12.8691 -0.351712 -0.948827 -2.74021 -7.51899 -1.33315 7.13839 6.59574 -0.930557 4.91672 12.831 -1.30218 3.18055e-015 -3.18055e-015 3.18055e-015 -67.9453 -12.0609 -10.3984 -12.6344 44.3613 -123.786 6.54677 9.62745 -1.04006 22.7426 -3.36491 -15.9258 46.9876 -31.6226 9.43217 -9.63257 32.6655 136.029 -18.8385 9.03647 1.17037 6.49601 -14.2559 1.67855 15.9252 -6.21077 -7.95633 -16.0575 26.3602 0.0952293 -21.6186 20.3165 5.17323 22.7233 -41.8173 7.86965 
25.6218 99.501 -87.258 2.34486 0.468659 64.8087 -24.1369 -23.741 5.00923 21.6139 40.0004 -14.4137 15.4369 -0.849963 -1.05118 -2.75821 -7.38363 -1.506 6.57434 6.78915 -0.964986 4.56862 13.2286 -1.41788 -1.32417e-031 -2.38542e-015 -3.18055e-015 -70.321 -16.0702 -13.4854 -13.7491 46.9943 -123.799 6.54677 9.62745 -1.04006 22.3166 -3.27653 -15.794 48.5429 -30.9059 9.82835 -9.42288 32.6256 135.638 -19.7054 8.86552 1.94831 6.47715 -13.9136 1.77483 15.8175 -6.94211 -8.31207 -16.358 27.8923 -1.87439 -22.5139 20.7202 5.47615 19.9688 -39.5617 4.79286 
26.2371 99.6342 -88.6288 2.9532 0.764706 64.3545 -23.3552 -24.2435 4.68391 20.4752 39.6225 -9.84033 17.9551 -0.913141 -1.19456 -2.77538 -7.18025 -1.73825 5.87059 6.96023 -0.99787 4.01759 13.58 -1.49846 8.82781e-032 7.95139e-016 -6.36111e-015 -73.4396 -19.9116 -17.6631 -15.4415 50.0342 -122.871 6.54677 9.62745 -1.04006 21.9585 -3.20656 -15.6973 50.0178 -30.143 10.3348 -9.17892 32.663 135.211 -20.477 8.69942 2.66162 6.56347 -13.3217 1.86645 15.9019 -7.32639 -9.02188 -16.833 29.1555 -2.01574 -22.2067 21.0508 5.4607 18.3055 -38.1344 2.81069 
26.865 99.5294 -89.9604 3.69608 1.07325 63.9561 -22.669 -24.4258 4.59358 18.829 38.8493 -5.27532 20.2553 -0.608573 -1.38597 -2.79226 -7.16759 -1.80019 5.07287 7.08371 -1.043 3.27156 13.8354 -1.57009 3.18055e-015 0 -0 -77.1591 -22.8683 -23.0652 -17.7336 52.8494 -120.419 6.54677 9.62745 -1.04006 21.7198 -3.15768 -15.622 51.3123 -29.4417 10.907 -8.94319 32.7994 134.817 -21.164 8.54379 3.29242 6.80656 -12.4071 1.94366 16.2609 -7.33253 -10.0473 -17.5287 30.0191 -0.00577191 -20.6594 21.3296 5.11159 17.6479 -37.6321 1.91667 
27.5034 99.1883 -91.2432 4.52785 1.37076 63.7052 -22.1638 -24.2719 4.55262 16.9987 37.8286 -1.3728 22.0898 0.0413476 -1.62465 -2.85708 -7.75994 -1.46887 4.20767 7.13773 -1.12285 2.34632 13.9532 -1.68566 1.59028e-015 0 -0 -80.8925 -24.0136 -29.6491 -20.1905 54.386 -116.185 6.54677 9.62745 -1.04006 21.6558 -3.1399 -15.582 52.361 -28.9106 11.5125 -8.76774 33.0538 134.524 -21.7861 8.40298 3.82558 7.25023 -11.1382 2.00054 16.9505 -7.01039 -11.2918 -18.4182 30.4229 3.96356 -18.014 21.4106 4.44039 17.5294 -37.4257 1.8749 
28.1465 98.6327 -92.4706 5.3931 1.64151 63.7138 -21.9075 -23.8086 4.38881 15.3028 36.7792 1.31304 23.1302 1.07103 -1.89988 -3.08296 -9.49588 -0.657867 3.30982 7.11455 -1.2647 1.27273 13.9192 -1.91254 -1.59028e-015 -3.18055e-015 -3.18055e-015 -83.5236 -22.6792 -37.0475 -21.6783 53.5755 -110.654 6.54677 9.62745 -1.04006 21.8059 -3.16797 -15.6189 53.1434 -28.6483 12.1304 -8.71085 33.4232 134.397 -22.3528 8.2844 4.23206 7.90121 -9.55746 2.04169 17.995 -6.46819 -12.6306 -19.4036 30.3648 9.22719 -14.5968 21.0428 3.51636 17.3198 -36.5606 2.33512 
28.7881 97.8919 -93.6507 6.23145 1.86468 64.0696 -21.9129 -23.123 4.00838 13.9887 35.9672 2.45308 23.0215 2.50884 -2.17242 -3.6071 -12.9285 0.543233 2.44275 7.02878 -1.4931 0.103157 13.7614 -2.31014 -0 -7.95139e-016 -0 -83.7882 -18.9483 -44.7391 -20.9812 49.9659 -104.642 6.54677 9.62745 -1.04006 22.1685 -3.25506 -15.7849 53.6898 -28.7355 12.7457 -8.82825 33.8706 134.478 -22.8565 8.20007 4.46657 8.70362 -7.79972 2.08733 19.3912 -5.84337 -13.9383 -20.3516 29.8913 14.8471 -10.8869 20.0384 2.49097 16.4383 -34.2534 2.88159 
29.4279 96.9945 -94.8134 6.98589 2.00648 64.7939 -22.129 -22.3362 3.42971 13.1886 35.61 1.95891 21.4876 4.32451 -2.36107 -4.52609 -18.4049 1.89647 1.7043 6.91799 -1.82073 -1.08572 13.5521 -2.90589 1.59028e-015 -1.59028e-015 -0 -80.8949 -13.7152 -52.3416 -17.9284 44.0786 -98.3636 6.54677 9.62745 -1.04006 22.6854 -3.40471 -16.1151 54.0773 -29.2337 13.3413 -9.15546 34.3327 134.764 -23.2856 8.16219 4.48652 9.53093 -6.08119 2.17297 21.1114 -5.2673 -15.1118 -21.137 29.0804 19.9327 -7.39149 18.4071 1.54954 14.6302 -30.2586 3.20804 
30.0741 95.9615 -95.9973 7.62135 2.03338 65.8204 -22.4737 -21.5688 2.77391 12.9225 35.8051 -0.0635104 18.4413 6.39776 -2.35369 -5.87277 -25.7438 3.03729 1.16748 6.83067 -2.23923 -2.20279 13.3895 -3.68 3.18055e-015 -7.95139e-016 -0 -70.324 -5.41788 -60.0711 -12.6081 32.0852 -92.1609 6.54677 9.62745 -1.04006 23.2489 -3.6047 -16.6042 54.4061 -30.1875 13.8872 -9.68177 34.7542 135.173 -23.6507 8.17253 4.29183 10.2068 -4.6553 2.33913 23.0928 -4.83224 -16.0869 -21.6704 28.0457 23.9095 -4.50278 16.3325 0.825068 12.0607 -24.8911 3.26416 
30.7422 94.7743 -97.1989 8.13633 1.92731 66.9928 -22.8607 -20.9881 2.21655 13.157 36.664 -3.34702 14.0585 8.43752 -2.04328 -7.6704 -34.0442 3.50589 0.816692 6.80652 -2.70024 -3.16356 13.3668 -4.5673 7.95139e-016 3.18055e-015 -9.54166e-015 -53.7482 2.3038 -68.6792 -8.23908 16.9448 -84.1313 6.54677 9.62745 -1.04006 23.7346 -3.82701 -17.2005 54.7573 -31.6215 14.3281 -10.3339 35.1303 135.533 -24.0124 8.21199 3.96241 10.5617 -3.74315 2.60779 25.245 -4.58404 -16.8507 -21.9067 26.9924 26.588 -2.4794 14.0492 0.367684 9.13196 -18.7988 3.20254 
